<svg width="92" height="23" viewBox="0 0 92 23" xmlns="http://www.w3.org/2000/svg">
    <g fill="none" fill-rule="evenodd">
        <path fill="#F6F6F7" d="M-16-24h375v957H-16z"/>
        <path fill="#FFF" d="M-16-24h375v71H-16z"/>
        <g>
            <circle fill="#F8960C" cx="88" cy="19" r="4"/>
            <path d="M4.168 22.692V12.354H8.42V9.47H4.168V2.857h5.209V0H0v22.692h4.168zM17.88 23c1.708 0 3.027-.308 3.956-.924.93-.617 1.573-1.495 1.93-2.634.356-1.14.534-2.502.534-4.09V0h-4.026v15.828c0 .71-.052 1.378-.155 2.003-.104.626-.32 1.13-.648 1.513-.329.383-.859.574-1.591.574-.695 0-1.216-.191-1.563-.574-.347-.383-.568-.887-.662-1.513a13.512 13.512 0 0 1-.14-2.003V0H11.46v15.352c0 1.588.178 2.95.535 4.09.356 1.14 1.004 2.017 1.943 2.634.938.616 2.252.924 3.942.924zm13.235-.308V9.132l5.575 13.56h2.76V0h-3.436v12.943L30.468 0h-2.9v22.692h3.548zm15.347 0V9.132l5.575 13.56h2.76V0h-3.436v12.943L45.815 0h-2.9v22.692h3.548zm21.429 0v-2.858h-5.463v-7.508h4.252V9.441h-4.252V2.914h5.406V0h-9.574v22.692h9.63zm12.108 0v-2.858h-5.52V0h-4.167v22.692H80z" fill="#2A2A2E" fill-rule="nonzero"/>
        </g>
    </g>
</svg>
